# xmcd CD database file
#
# Track frame offsets:
#	150
#	19050
#	38595
#	58875
#
# Disc length: 1032 seconds
#
# Revision: 0
# Processed by: cddbd v1.5PL3 Copyright (c) Steve Scherf et al.
# Submitted via: CDex 1.51
#
DISCID=2b040604
DTITLE=吉川晃司 - ナイフ
DYEAR=2000
DGENRE=Rock
TTITLE0=ナイフ
TTITLE1=SOLITUDE(ライヴ)
TTITLE2=SPEED(ライヴ)
TTITLE3=ナイフ(バッキング・トラック)
EXTD=YEAR: 2000
EXTT0=
EXTT1=
EXTT2=
EXTT3=
PLAYORDER=
